<svg width="97" height="28" viewBox="0 0 97 28" fill="none" xmlns="http://www.w3.org/2000/svg">
<path d="M3.50145 12.3861C3.71878 12.745 4.03344 13.0361 4.40955 13.2261C4.7945 13.4284 5.22411 13.5324 5.65972 13.529C6.03029 13.5305 6.39872 13.4733 6.75107 13.3594C7.08968 13.2457 7.41047 13.0853 7.70396 12.8828C7.99305 12.6838 8.23943 12.4299 8.42882 12.1357V15.1041C8.06216 15.38 7.64831 15.5879 7.20716 15.718C6.6257 15.8875 6.02126 15.9665 5.41538 15.9522C4.45465 15.968 3.50354 15.7605 2.63814 15.3464C1.84729 14.9698 1.17759 14.3825 0.703837 13.6502C0.22484 12.8879 -0.0199573 12.0038 -0.000654989 11.1058C-0.0221088 10.2038 0.222763 9.3152 0.703837 8.54937C1.18044 7.82249 1.84967 7.23982 2.63814 6.86525C3.50354 6.45117 4.45465 6.2437 5.41538 6.25945C6.02126 6.24517 6.6257 6.32419 7.20716 6.4937C7.6419 6.62086 8.05405 6.81434 8.42882 7.06718V10.0558C8.23682 9.75835 7.9844 9.50389 7.68767 9.30864C7.38214 9.10731 7.04884 8.95087 6.69813 8.84419C6.3622 8.73866 6.01209 8.68419 5.65972 8.68265C5.22172 8.68043 4.79075 8.79181 4.40955 9.00574C4.03356 9.20883 3.71982 9.50882 3.50145 9.87405C3.28238 10.2478 3.16978 10.6736 3.17567 11.1058C3.16267 11.5543 3.27545 11.9975 3.50145 12.3861Z" fill="black"/>
<path d="M13.6418 0V15.7508H10.5469V0H13.6418Z" fill="black"/>
<path d="M16.2886 1.78411C16.6448 1.4919 17.0927 1.33203 17.555 1.33203C18.0173 1.33203 18.4652 1.4919 18.8215 1.78411C18.9914 1.93069 19.1263 2.11291 19.2164 2.31757C19.3066 2.52223 19.3497 2.74421 19.3427 2.96743C19.352 3.1951 19.31 3.42195 19.2198 3.63152C19.1297 3.84109 18.9936 4.02812 18.8215 4.17903C18.4687 4.47876 18.0195 4.64351 17.555 4.64351C17.0905 4.64351 16.6413 4.47876 16.2886 4.17903C16.1138 4.02982 15.9754 3.8433 15.8837 3.63346C15.792 3.42363 15.7494 3.19592 15.7592 2.96743C15.752 2.74341 15.7959 2.52066 15.8875 2.31578C15.9792 2.1109 16.1163 1.92917 16.2886 1.78411ZM19.0373 6.46087V15.7498H16.0646V6.46087H19.0373Z" fill="black"/>
<path d="M24.3722 12.3861C24.5879 12.7448 24.9013 13.036 25.2763 13.2261C25.6628 13.4279 26.0937 13.5319 26.5305 13.529C26.8997 13.5305 27.2668 13.4732 27.6178 13.3594C27.958 13.2466 28.2803 13.0861 28.5747 12.8828C28.8712 12.6859 29.1246 12.4318 29.32 12.1357V15.1041C28.9533 15.38 28.5394 15.5879 28.0983 15.718C27.5168 15.8875 26.9124 15.9665 26.3065 15.9522C25.3376 15.971 24.3779 15.7635 23.5048 15.3464C22.7192 14.9669 22.0542 14.38 21.5828 13.6502C21.105 12.8876 20.8616 12.0034 20.8823 11.1058C20.8594 10.2042 21.1029 9.31555 21.5828 8.54937C22.0571 7.82512 22.7217 7.24287 23.5048 6.86525C24.3717 6.45126 25.3241 6.24382 26.2862 6.25945C26.892 6.24517 27.4965 6.32419 28.0779 6.4937C28.5127 6.62086 28.9248 6.81434 29.2996 7.06718V10.0558C29.1061 9.75817 28.8524 9.50372 28.5544 9.30864C28.2499 9.10809 27.918 8.9517 27.5689 8.84419C27.233 8.73866 26.8829 8.68419 26.5305 8.68265C26.0913 8.68085 25.6591 8.79218 25.2763 9.00574C24.8988 9.21196 24.5855 9.51666 24.3701 9.88684C24.1548 10.257 24.0457 10.6786 24.0546 11.1058C24.0391 11.5535 24.1491 11.9967 24.3722 12.3861Z" fill="black"/>
<path d="M34.3488 0V15.7508H31.3965V0H34.3488ZM41.4141 6.46185L37.4233 10.2986L41.8213 15.7508H38.2174L33.738 10.2986L37.7491 6.46185H41.4141Z" fill="black"/>
<path d="M46.1574 15.7508H43.0625V0H46.1574V15.7508ZM48.8654 8.82446C48.7409 8.66797 48.5786 8.5452 48.3935 8.46753C48.2084 8.38987 48.0066 8.35983 47.8066 8.38021C47.5072 8.37221 47.2113 8.44627 46.9515 8.59426C46.7105 8.7316 46.513 8.93304 46.3814 9.17583C46.2363 9.46084 46.1663 9.77759 46.1777 10.0966H45.6484C45.6368 9.40629 45.7613 8.72034 46.0149 8.07731C46.2385 7.50321 46.6227 7.0044 47.1225 6.63955C47.6843 6.26499 48.352 6.07821 49.0283 6.10645C49.6737 6.07603 50.3157 6.21536 50.8893 6.51031C51.3614 6.78651 51.7248 7.21378 51.9196 7.72191C52.1527 8.34133 52.2634 8.99952 52.2454 9.66047V15.7508H49.1505V10.0966C49.1846 9.65394 49.0854 9.21116 48.8654 8.82446Z" fill="black"/>
<path d="M54.6743 8.28268C55.1487 7.55584 55.8187 6.97524 56.6086 6.60663C57.4642 6.19344 58.4059 5.9859 59.3574 6.00084C60.305 5.98507 61.2429 6.19269 62.0939 6.60663C62.8767 6.98724 63.5388 7.57405 64.0078 8.30287C64.4885 9.07187 64.7332 9.9629 64.7123 10.8674C64.7316 11.7654 64.4868 12.6495 64.0078 13.4118C63.5388 14.1406 62.8767 14.7274 62.0939 15.108C61.2429 15.5219 60.305 15.7296 59.3574 15.7138C58.4042 15.7225 57.4625 15.508 56.6086 15.0878C55.8061 14.7081 55.1324 14.1049 54.6696 13.3519C54.2069 12.5989 53.975 11.7286 54.0024 10.8472C53.9734 9.94611 54.2066 9.05577 54.6743 8.28268ZM57.4434 12.0911C57.6336 12.4237 57.9071 12.7019 58.2375 12.8989C58.4862 13.0419 58.7611 13.1344 59.0462 13.1712C59.3313 13.208 59.6209 13.1882 59.8982 13.1131C60.1756 13.038 60.4351 12.9089 60.6617 12.7335C60.8883 12.558 61.0775 12.3397 61.2184 12.0911C61.4241 11.7089 61.5266 11.2804 61.5156 10.8472C61.5261 10.4116 61.4238 9.98049 61.2184 9.59524C61.0352 9.25757 60.76 8.9777 60.4243 8.78751C60.0902 8.60216 59.7137 8.50484 59.3309 8.50484C58.9481 8.50484 58.5716 8.60216 58.2375 8.78751C57.9054 8.98226 57.6313 9.26101 57.4434 9.59524C57.2317 9.97839 57.1263 10.4104 57.138 10.8472C57.1255 11.2815 57.231 11.7111 57.4434 12.0911Z" fill="black"/>
<path d="M69.9393 13.3792C70.0616 13.5386 70.2233 13.664 70.4088 13.7432C70.5943 13.8225 70.7972 13.8529 70.9981 13.8315C71.2987 13.8401 71.5963 13.7705 71.8614 13.6296C72.101 13.4913 72.296 13.2882 72.4233 13.0439C72.566 12.7552 72.6359 12.4365 72.627 12.1151V6.46094H75.7015V15.7498H72.627V14.3565C72.3588 14.8362 71.9738 15.2416 71.5071 15.5358C70.9841 15.8423 70.3835 15.9937 69.7764 15.972C68.6077 15.972 67.7403 15.661 67.2191 15.031C66.6409 14.2925 66.3517 13.3716 66.4046 12.4381V6.46094H69.6339V12.1151C69.6092 12.5569 69.7154 12.9963 69.9393 13.3792Z" fill="black"/>
<path d="M79.8155 13.2955C80.1396 13.4905 80.4853 13.6477 80.8458 13.764C81.0964 13.8423 81.3568 13.8858 81.6195 13.8933C81.8674 13.912 82.1136 13.8402 82.3118 13.6913C82.3848 13.6248 82.4426 13.5435 82.4813 13.453C82.5199 13.3624 82.5385 13.2646 82.5357 13.1663C82.5414 12.9786 82.476 12.7956 82.3525 12.6534C82.1761 12.4764 81.9637 12.3388 81.7294 12.2495C81.3429 12.0823 80.9457 11.9407 80.5403 11.8255C80.1005 11.6689 79.6742 11.4771 79.2657 11.252C78.8705 11.0327 78.5329 10.7242 78.2803 10.3514C78.0047 9.91727 77.8697 9.4099 77.8934 8.89745C77.8768 8.38204 78.0377 7.87638 78.3495 7.46373C78.6732 7.05984 79.1029 6.75238 79.5915 6.57523C80.1686 6.36373 80.7804 6.261 81.3955 6.27233C81.9062 6.26857 82.4153 6.32965 82.9104 6.45407C83.3668 6.57113 83.8102 6.7335 84.2338 6.93871C84.6459 7.13796 85.0385 7.37455 85.4066 7.64547L84.3071 9.62441C83.9085 9.25855 83.4552 8.95611 82.9633 8.72783C82.534 8.50912 82.0611 8.38772 81.5788 8.37243C81.3523 8.35562 81.1265 8.41232 80.9354 8.53397C80.8709 8.58037 80.8182 8.64102 80.7814 8.71112C80.7446 8.78121 80.7249 8.85884 80.7236 8.93784C80.722 9.03587 80.744 9.13285 80.788 9.22068C80.8319 9.30852 80.8964 9.38463 80.9761 9.44267C81.2 9.60363 81.4471 9.73024 81.7091 9.81827L82.8819 10.2504C83.3486 10.4149 83.8008 10.6175 84.2338 10.8562C84.6279 11.0677 84.9689 11.3645 85.2315 11.7245C85.502 12.1381 85.6344 12.6255 85.6102 13.1178C85.6444 13.5387 85.5802 13.9617 85.4227 14.3539C85.2652 14.7462 85.0186 15.0971 84.7021 15.3795C83.9457 15.9361 83.0158 16.2106 82.0756 16.1549C81.4464 16.1596 80.8193 16.0822 80.2105 15.9247C79.6566 15.7754 79.1212 15.5655 78.6142 15.2987C78.1368 15.0413 77.6807 14.7469 77.25 14.4183L78.5327 12.399C78.9333 12.7342 79.3625 13.0341 79.8155 13.2955Z" fill="black"/>
<path d="M89.1485 15.3469C88.3822 14.9739 87.7425 14.3872 87.3078 13.6587C86.859 12.8787 86.6337 11.9919 86.6562 11.0942C86.6311 10.1922 86.849 9.29999 87.2874 8.50942C87.7144 7.79295 88.3486 7.22028 89.1077 6.86569C89.9898 6.45577 90.956 6.25527 91.9298 6.28008C92.8772 6.25183 93.8183 6.44264 94.6785 6.83741C95.403 7.18814 96.0003 7.75238 96.3889 8.45288C96.8018 9.23698 97.0051 10.113 96.9793 10.9972V11.4294C96.981 11.5491 96.9673 11.6685 96.9386 11.7848H88.3869V10.0562H94.1695L93.4365 10.9851C93.5087 10.8759 93.5662 10.7578 93.6075 10.6338C93.6504 10.5198 93.6751 10.3999 93.6808 10.2783C93.6887 9.9159 93.612 9.55655 93.4569 9.2283C93.3165 8.94465 93.0975 8.7065 92.8257 8.54173C92.5351 8.37542 92.2041 8.29159 91.8687 8.29941C91.4602 8.28442 91.0563 8.38982 90.7081 8.60231C90.375 8.82329 90.1246 9.14689 89.9955 9.52312C89.825 10.0198 89.7397 10.5413 89.743 11.0659C89.7335 11.562 89.8191 12.0554 89.9955 12.5198C90.1359 12.8957 90.3924 13.2179 90.7285 13.4406C91.0902 13.6572 91.5075 13.7652 91.9298 13.7516C92.412 13.7648 92.8901 13.6608 93.3225 13.4487C93.7144 13.2417 94.0371 12.926 94.2509 12.54L96.9997 13.2064C96.5584 14.0736 95.8666 14.7907 95.0125 15.2661C94.1001 15.7018 93.1032 15.9357 92.0907 15.9518C91.0783 15.9678 90.0744 15.7655 89.1485 15.359V15.3469Z" fill="black"/>
<path d="M41.8097 25.0154H37.4728L34.3535 28V17.9316L41.8097 25.0154Z" fill="black"/>
<path d="M31.3723 19.3535H0V21.0013H31.3723V19.3535Z" fill="#FF9900"/>
<path d="M96.9993 19.3535H43.0508V21.0013H96.9993V19.3535Z" fill="#FF9900"/>
</svg>
