<svg width="0" height="0" class="hidden" xmlns="http://www.w3.org/2000/svg">
  <symbol fill="none" xmlns="http://www.w3.org/2000/svg" viewBox="0 0 14 10" id="arrow">
    <path d="M0 2.27583L1.65025 0.625L7.00233 6.07275L12.3497 0.625L14 2.27583L7.00233 9.375L0 2.27583Z" fill="#3A3541"></path>
  </symbol>
  <symbol fill="none" xmlns="http://www.w3.org/2000/svg" viewBox="0 0 18 16" id="ecommerce">
    <path d="M9.97425 1.805C9.819 1.6505 9.75 1.45925 9.75 1.27175C9.75 0.87875 10.0553 0.5 10.515 0.5C10.7115 0.5 10.9065 0.575 11.0557 0.7235L13.893 3.56075C13.3147 3.6485 12.768 3.833 12.2745 4.10525L9.97425 1.805ZM9.75 8.375C9.75 7.4075 10.0357 6.50825 10.521 5.75H0V7.25H0.48225C0.8835 7.25 1.248 7.478 1.42425 7.838L4.5 15.5H13.5L14.4083 13.2388C11.817 13.1248 9.75 10.994 9.75 8.375ZM8.02575 1.805C8.181 1.6505 8.25 1.45925 8.25 1.27175C8.25 0.87875 7.94475 0.5 7.485 0.5C7.28925 0.5 7.0935 0.575 6.945 0.7235L3.41925 4.25H5.5815L8.02575 1.805ZM14.625 5C12.7605 5 11.25 6.51125 11.25 8.375C11.25 10.2387 12.7605 11.75 14.625 11.75C16.488 11.75 18 10.2387 18 8.375C18 6.51125 16.488 5 14.625 5ZM14.2733 9.863L13.0072 8.63525L13.5285 8.1125L14.2725 8.8175L15.8588 7.19075L16.3815 7.71275L14.2733 9.863Z" fill="#6E39CB"></path>
  </symbol>
</svg>
