
<svg width="0" height="0">
  <symbol fill="none" xmlns="http://www.w3.org/2000/svg" viewBox="0 0 28 51" id="facebook">
    <path fill-rule="evenodd" clip-rule="evenodd" d="M7.26238 25.6016V48.1016C7.26238 48.4016 7.59128 48.7016 7.92018 48.7016H17.1293C17.4582 48.7016 17.7871 48.4016 17.7871 48.1016V25.3016H24.4747C24.8036 25.3016 25.1325 25.1016 25.1325 24.8016L25.7903 17.9016C25.7903 17.6016 25.5711 17.3016 25.1325 17.3016H17.7871V12.4016C17.7871 11.2016 18.7738 10.3016 20.0894 10.3016H25.2422C25.5711 10.3016 25.9 10.0016 25.9 9.70156V2.70156C25.9 2.40156 25.5711 2.10156 25.2422 2.10156H16.5812C11.5381 2.10156 7.37201 5.90156 7.37201 10.5016V17.2016H2.6578C2.3289 17.2016 2 17.5016 2 17.8016V24.7016C2 25.0016 2.3289 25.3016 2.6578 25.3016H7.26238V25.6016Z" stroke="#7D7D7D" stroke-width="3" stroke-miterlimit="10" stroke-linejoin="round"></path>
  </symbol>
  <symbol fill="none" xmlns="http://www.w3.org/2000/svg" viewBox="0 0 65 42" id="google">
    <path d="M20.5 19.7V24.7H32.3C30.9 30.8 26.6 34.6 20.8 34.6C13.2 34.6 7.1 28.4 7.1 20.9C7.1 13.4 13.2 7.1 20.8 7.1C24.4 7.1 27.7 8.5 30.1 10.8L34 7.5C30.6 4 25.9 2 20.8 2C10.4 2 2 10.4 2 20.8C2 31.2 10.4 39.6 20.8 39.6C30.8 39.6 38 32 38 21.6V19.7H20.5Z" stroke="#7D7D7D" stroke-width="3" stroke-miterlimit="10" stroke-linejoin="round"></path>
    <path d="M63.2 19.9016H55.9V12.6016H51.3V19.9016H44.1V24.5016H51.3V31.7016H55.9V24.5016H63.2V19.9016Z" stroke="#7D7D7D" stroke-width="3" stroke-miterlimit="10" stroke-linejoin="round"></path>
  </symbol>
  <symbol fill="none" xmlns="http://www.w3.org/2000/svg" viewBox="0 0 52 32" id="vk">
    <path fill-rule="evenodd" clip-rule="evenodd" d="M49.1775 4.12974C48.5775 3.62974 46.2775 3.62974 43.9775 3.62974C41.6775 3.62974 39.3775 3.62974 38.8775 3.92974C38.3775 4.12974 37.2775 6.82974 35.8775 9.52974C34.2775 12.6297 32.2775 15.6297 30.9775 15.5297C29.2775 15.5297 29.6775 10.4297 29.8775 6.62974C29.8775 4.12974 29.4775 3.32974 29.1775 3.12974C28.2775 2.62974 25.8775 2.02974 25.8775 2.02974C25.8775 2.02974 18.6775 1.52974 17.6775 4.62974C19.0775 4.82974 21.3775 4.42974 20.4775 13.9297C20.3775 14.4297 19.3775 18.3297 16.0775 13.0297C15.2775 11.7297 12.0775 3.72974 10.8775 3.62974C7.27754 3.52974 3.57754 3.42974 2.27754 4.12974C1.07754 4.82974 3.87754 10.3297 8.57754 17.6297C12.3775 23.6297 16.4775 28.3297 23.4775 29.5297C24.7775 29.6297 28.2775 29.8297 29.3775 29.3297C30.0775 28.9297 29.1775 23.7297 31.6775 23.2297C32.7775 23.0297 37.0775 28.6297 38.6775 29.3297C39.6775 29.7297 41.7775 29.9297 43.9775 29.8297C46.3775 29.7297 49.0775 30.0297 49.3775 28.4297C49.9775 24.8297 42.1775 20.1297 41.8775 17.9297C41.6775 16.3297 44.7775 13.4297 46.2775 11.1297C48.2775 8.42974 50.3775 5.12974 49.1775 4.12974Z" stroke="#7D7D7D" stroke-width="3" stroke-miterlimit="10" stroke-linejoin="round"></path>
  </symbol>
</svg>

